REM DIRINDEX 1\2,1\3\7,1\3\8,1\4\9,1\4\10,1\4\11,1\5\12,1\5\13,1\5\14,1\6\15,1\6\16,1\6\17
REM DIRNAME "folder01","folder02","folder03","folder04","folder05","folder06","folder07","folder08","folder09","folder10","folder11","folder12","folder13","folder14","folder15","folder16","folder17"
TITLE ""
FILE "2Q_k_031-040.mp3" MP3
  TRACK 01 AUDIO
    TITLE "12:cjc174_1444"
    INDEX 01 00:00:00
  TRACK 02 AUDIO
    TITLE "0:"
    INDEX 01 00:01:63
  TRACK 03 AUDIO
    TITLE "13:cjc174_1445"
    INDEX 01 00:02:35
  TRACK 04 AUDIO
    TITLE "0:"
    INDEX 01 00:06:11
  TRACK 05 AUDIO
    TITLE "14:cjc174_1446"
    INDEX 01 00:06:56
  TRACK 06 AUDIO
    TITLE "14:cjc174_1447"
    INDEX 01 00:07:75
  TRACK 07 AUDIO
    TITLE "0:"
    INDEX 01 00:11:55
  TRACK 08 AUDIO
    TITLE "12:cjc174_1448"
    INDEX 01 00:12:27
  TRACK 09 AUDIO
    TITLE "0:"
    INDEX 01 00:14:38
  TRACK 10 AUDIO
    TITLE "13:cjc174_1449"
    INDEX 01 00:15:10
  TRACK 11 AUDIO
    TITLE "0:"
    INDEX 01 00:16:72
  TRACK 12 AUDIO
    TITLE "14:cjc174_1450"
    INDEX 01 00:17:42
  TRACK 13 AUDIO
    TITLE "14:cjc174_1451"
    INDEX 01 00:21:05
  TRACK 14 AUDIO
    TITLE "0:"
    INDEX 01 00:22:39
  TRACK 15 AUDIO
    TITLE "12:cjc174_1452"
    INDEX 01 00:23:09
  TRACK 16 AUDIO
    TITLE "0:"
    INDEX 01 00:25:36
  TRACK 17 AUDIO
    TITLE "13:cjc174_1453"
    INDEX 01 00:26:10
  TRACK 18 AUDIO
    TITLE "0:"
    INDEX 01 00:28:28
  TRACK 19 AUDIO
    TITLE "14:cjc174_1454"
    INDEX 01 00:28:73
  TRACK 20 AUDIO
    TITLE "14:cjc174_1455"
    INDEX 01 00:30:74
  TRACK 21 AUDIO
    TITLE "0:"
    INDEX 01 00:35:75
  TRACK 22 AUDIO
    TITLE "12:cjc174_1456"
    INDEX 01 00:36:49
  TRACK 23 AUDIO
    TITLE "0:"
    INDEX 01 00:39:03
  TRACK 24 AUDIO
    TITLE "13:cjc174_1457"
    INDEX 01 00:39:51
  TRACK 25 AUDIO
    TITLE "0:"
    INDEX 01 00:42:67
  TRACK 26 AUDIO
    TITLE "14:cjc174_1458"
    INDEX 01 00:43:36
  TRACK 27 AUDIO
    TITLE "14:cjc174_1459"
    INDEX 01 00:45:29
  TRACK 28 AUDIO
    TITLE "0:"
    INDEX 01 00:49:34
  TRACK 29 AUDIO
    TITLE "12:cjc174_1460"
    INDEX 01 00:50:04
  TRACK 30 AUDIO
    TITLE "0:"
    INDEX 01 00:51:70
  TRACK 31 AUDIO
    TITLE "13:cjc174_1461"
    INDEX 01 00:52:40
  TRACK 32 AUDIO
    TITLE "0:"
    INDEX 01 00:54:69
  TRACK 33 AUDIO
    TITLE "14:cjc174_1462"
    INDEX 01 00:55:41
  TRACK 34 AUDIO
    TITLE "14:cjc174_1463"
    INDEX 01 00:58:70
  TRACK 35 AUDIO
    TITLE "0:"
    INDEX 01 01:02:29
  TRACK 36 AUDIO
    TITLE "12:cjc174_1464"
    INDEX 01 01:03:03
  TRACK 37 AUDIO
    TITLE "0:"
    INDEX 01 01:05:35
  TRACK 38 AUDIO
    TITLE "13:cjc174_1465"
    INDEX 01 01:06:05
  TRACK 39 AUDIO
    TITLE "0:"
    INDEX 01 01:08:59
  TRACK 40 AUDIO
    TITLE "14:cjc174_1466"
    INDEX 01 01:09:29
  TRACK 41 AUDIO
    TITLE "14:cjc174_1467"
    INDEX 01 01:13:58
  TRACK 42 AUDIO
    TITLE "0:"
    INDEX 01 01:14:60
  TRACK 43 AUDIO
    TITLE "12:cjc174_1468"
    INDEX 01 01:15:32
  TRACK 44 AUDIO
    TITLE "0:"
    INDEX 01 01:16:68
  TRACK 45 AUDIO
    TITLE "13:cjc174_1469"
    INDEX 01 01:17:42
  TRACK 46 AUDIO
    TITLE "0:"
    INDEX 01 01:20:74
  TRACK 47 AUDIO
    TITLE "14:cjc174_1470"
    INDEX 01 01:21:46
  TRACK 48 AUDIO
    TITLE "14:cjc174_1471"
    INDEX 01 01:25:34
  TRACK 49 AUDIO
    TITLE "0:"
    INDEX 01 01:27:09
  TRACK 50 AUDIO
    TITLE "12:cjc174_1472"
    INDEX 01 01:27:54
  TRACK 51 AUDIO
    TITLE "0:"
    INDEX 01 01:30:08
  TRACK 52 AUDIO
    TITLE "13:cjc174_1473"
    INDEX 01 01:30:57
  TRACK 53 AUDIO
    TITLE "0:"
    INDEX 01 01:33:20
  TRACK 54 AUDIO
    TITLE "14:cjc174_1474"
    INDEX 01 01:33:65
  TRACK 55 AUDIO
    TITLE "14:cjc174_1475"
    INDEX 01 01:36:57
  TRACK 56 AUDIO
    TITLE "0:"
    INDEX 01 01:39:54
  TRACK 57 AUDIO
    TITLE "12:cjc174_1476"
    INDEX 01 01:40:26
  TRACK 58 AUDIO
    TITLE "0:"
    INDEX 01 01:41:53
  TRACK 59 AUDIO
    TITLE "13:cjc174_1477"
    INDEX 01 01:42:25
  TRACK 60 AUDIO
    TITLE "0:"
    INDEX 01 01:43:75
  TRACK 61 AUDIO
    TITLE "14:cjc174_1478"
    INDEX 01 01:44:45
  TRACK 62 AUDIO
    TITLE "14:cjc174_1479"
    INDEX 01 01:47:73
  TRACK 63 AUDIO
    TITLE "0:"
    INDEX 01 01:51:73
  TRACK 64 AUDIO
    TITLE "12:cjc174_1480"
    INDEX 01 01:52:49
  TRACK 65 AUDIO
    TITLE "0:"
    INDEX 01 01:54:22
  TRACK 66 AUDIO
    TITLE "13:cjc174_1481"
    INDEX 01 01:54:69
  TRACK 67 AUDIO
    TITLE "0:"
    INDEX 01 01:56:46
  TRACK 68 AUDIO
    TITLE "14:cjc174_1482"
    INDEX 01 01:57:16
  TRACK 69 AUDIO
    TITLE "14:cjc174_1483"
    INDEX 01 02:00:60
  TRACK 70 AUDIO
    TITLE "0:"
    INDEX 01 02:04:48
